<?xml version="1.0" encoding="UTF-8" standalone="no"?>
<!DOCTYPE svg PUBLIC "-//W3C//DTD SVG 1.1//EN" "http://www.w3.org/Graphics/SVG/1.1/DTD/svg11.dtd">
<svg version="1.1" xmlns="http://www.w3.org/2000/svg" xmlns:xlink="http://www.w3.org/1999/xlink" preserveAspectRatio="xMidYMid meet" viewBox="1.4364191251272018 11.917848807868666 618.3221520127679 529.2611949357733" width="614.32" height="525.26"><defs><path d="M247.08 538L290.36 358.21L581.56 168.05L616.76 209.24L612.79 226.4C612.75 226.41 612.72 226.41 612.71 226.42C590.14 231.64 568.51 240.31 548.58 252.14C540.82 256.75 541.86 256.13 532.66 261.59C517.52 270.58 504.12 282.22 493.11 295.97C486.24 304.54 469.08 325.96 441.63 360.23C441.56 360.59 441.52 360.82 441.51 360.91C440.11 368.98 433.11 374.87 424.92 374.87C424.53 374.87 423.53 374.87 421.94 374.87C419.77 375.86 418.41 376.47 417.86 376.72C386.15 391.08 357.96 412.19 335.26 438.57C334.31 439.67 331.96 442.41 328.18 446.79L262.61 537.51L245.24 537.49" id="h6E0zRSUwl"></path><path d="M511.7 143.43C510.91 142.07 511.42 140.56 512.91 139.86C513.63 139.52 513.53 139.57 514.33 139.2C515.76 138.53 517.44 138.2 519.18 138.27C522.45 138.4 524.35 138.2 524.87 137.68C525 137.55 525.07 137.4 525.08 137.23C525.14 136.1 522.39 134.15 516.84 131.38C514.74 130.07 513.44 129.25 512.91 128.93C511.79 128.22 511.01 127.22 510.73 126.14C510.63 125.72 510.36 124.68 509.94 123.02C508.84 122.47 508.16 122.12 507.88 121.98C507.02 121.54 506.66 120.68 507.06 120C507.61 119.09 508.47 117.63 509 116.74C509.32 116.19 508.69 115.51 507.92 115.58C507.02 115.65 506.47 115.69 505.64 115.76C504.22 115.87 502.74 115.58 501.47 114.92C500.62 114.49 501.94 115.17 501.57 114.97C499.1 113.71 496.03 114.04 494.42 115.73C494.26 115.91 493.85 116.33 493.2 117.02C492.89 117.39 490.41 120.33 490.1 120.7C489.73 121.26 489.5 121.6 489.4 121.74C488.41 123.22 488.75 125.12 490.25 126.52C493.61 129.63 502.02 137.42 515.46 149.89C513.46 146.44 512.2 144.29 511.7 143.43Z" id="a28ORhePfN"></path><path d="M409.81 336.92C409.19 326.62 408.81 320.19 408.65 317.61C408.44 314.01 410.74 310.74 414.2 309.71C415.27 309.4 413.12 310.03 414.33 309.67C417.28 308.81 420.39 310.36 421.47 313.23C422.38 315.64 424.65 321.68 428.29 331.33C431.61 339.81 433.68 345.11 434.51 347.23C435.83 350.59 434.67 354.43 431.71 356.49C428.73 358.57 424.85 361.28 421.87 363.35C419.44 365.04 416.08 363.75 415.4 360.87C414.66 357.68 412.79 349.69 409.81 336.92Z" id="i1FHKauG8z"></path><path d="M496.48 226L591.02 170L591.02 194.21C591.71 200.82 592.14 204.96 592.32 206.61C592.84 211.6 590.11 216.36 585.54 218.42C576.63 222.44 573.53 223.84 568.61 226.07C550.27 234.35 532.87 244.58 516.72 256.59C510.99 260.86 512 260.1 504.75 265.5C493.69 273.72 484.05 283.69 476.2 295.02C474.46 297.54 470.11 303.83 463.14 313.89C451.13 331.74 443.63 342.9 440.63 347.36C439.29 349.35 436.28 349.09 435.3 346.9C433.02 341.78 427.31 328.99 418.18 308.52L418.18 272.38L496.48 226Z" id="bBC5Jz0A"></path><path d="M235.3 419.62L274.04 369.12L407.31 306.86C407.59 312.68 407.76 316.31 407.83 317.76C408.56 333.01 411.54 348.06 416.68 362.44C416.77 362.67 416.98 363.26 417.31 364.2C410.35 366.84 406.01 368.48 404.27 369.14C395.41 372.5 386.89 376.72 378.85 381.74C373.8 384.89 369.45 387.6 364.07 390.95C357.1 395.29 350.54 400.28 344.49 405.85C340.5 409.52 346.31 404.17 344.49 405.85C331.23 418.04 319.39 431.7 309.19 446.55C306.27 450.8 298.98 461.42 287.31 478.42L251.9 522L235.3 419.62Z" id="ekMPTzyUv"></path><path d="M256.36 461.3L253.29 524.03C125.36 408.77 45.41 336.73 13.42 307.92C13.33 307.84 13.3 307.71 13.35 307.59C16.01 301.13 22.65 284.96 33.27 259.08" id="a3flKZgYI"></path><path d="M230 102.5C248.06 76.44 276.03 58.94 307.36 54.07C319.24 52.23 323.81 51.52 340.19 48.97C357.67 46.26 374.29 39.58 388.79 29.45C395.19 24.98 399.1 22.25 407.19 16.6C415.12 11.06 425.84 11.84 432.88 18.46C466.43 50.02 555.2 133.52 588.8 165.12C594.35 170.33 592.65 179.53 585.62 182.43C573.8 187.3 563.86 191.4 554.66 195.19C535.94 202.9 518.03 212.44 501.18 223.67C491.49 230.13 503.17 222.35 497.33 226.24C467.98 245.8 443.45 271.76 425.58 302.17C423.99 304.89 431.21 292.59 425.83 301.75C421.61 308.93 411.82 310.36 405.72 304.68C367.32 268.95 264 172.79 225.6 137.06C218.78 130.71 217.66 120.31 222.97 112.65C230.03 102.46 226.74 107.2 230 102.5Z" id="f2a2pjqD2X"></path><path d="M189.32 122.06C166.97 121.4 145.06 128.39 127.23 141.88C120.53 146.95 132.63 137.79 127.1 141.98C105.23 158.52 87.95 180.37 76.88 205.46C74.5 210.87 81.05 196.01 77.88 203.21C69.44 222.33 55.55 238.53 37.93 249.78C34.86 251.74 42.6 246.79 37.02 250.36C29.73 255.01 28.86 265.31 35.24 271.12C79.6 311.51 200.41 421.5 244.87 461.98C251.1 467.66 260.99 466.09 265.16 458.77C270.93 448.62 274.43 442.48 278.78 434.83C288.91 417.03 300.95 400.38 314.68 385.17C322.06 377 310.98 389.27 315.22 384.58C339.16 358.05 368.64 337.11 401.56 323.22C405.06 321.74 393.47 326.63 403.95 322.21C411.12 319.19 412.86 309.82 407.25 304.42C369.57 268.13 268.37 170.64 230.69 134.35C223.07 127.01 213 122.77 202.42 122.45C192.9 122.17 195.23 122.24 189.32 122.06Z" id="f1GkOa5xJH"></path><path d="M14.84 306.11L253.34 524.12L246.17 538.18L2.44 310.19L14.84 306.11Z" id="e2dvrrRtwk"></path><path d="M123.35 272.31L133.1 261.51L136.65 246.22L140.2 233.62L153.49 233.62L165.9 227.32L168.56 213.82L171.22 200.32L185.41 194.92L197.82 188.63L206.68 178.73" id="a19OVtK8MJ"></path><path d="M486.95 182.4C487.19 182.21 487.79 181.72 488.76 180.94C491.9 180.34 493.87 179.97 494.66 179.82C495.85 179.6 496.43 178.57 495.9 177.62C495.69 177.24 495.16 176.29 494.32 174.78C494.35 174.51 494.49 173.18 494.74 170.8C491.41 168.3 489.57 166.92 489.2 166.64C487.56 166.37 486.53 166.2 486.12 166.13C485.43 166.01 484.89 165.53 484.84 164.97C484.71 163.48 484.5 161.09 484.39 159.88C484.29 158.8 485.64 158.13 486.9 158.62C487.56 158.89 487.29 158.78 488.07 159.09C489.26 159.56 490.62 159.24 491.15 158.36C491.37 158 491.91 157.11 492.76 155.7C492.48 155.03 490.18 149.66 489.89 148.98C487.26 148.34 485.61 147.93 484.95 147.77C483.89 147.5 483.1 146.72 483.02 145.85C482.26 137.18 480.2 113.98 479.47 105.65C479.37 104.56 481.01 104.1 481.97 104.95C494.87 116.39 530.94 148.37 543.88 159.84C545.32 161.12 545.3 162.98 543.85 164C532.58 171.95 501.58 193.81 490.36 201.72C489.24 202.51 487.34 201.78 487.23 200.52C486.95 197.08 486.24 188.49 485.93 184.68C485.86 183.81 486.23 182.99 486.95 182.4Z" id="a4ov5fUoyn"></path><path d="M486.95 182.4C487.19 182.21 487.79 181.72 488.76 180.94C491.9 180.34 493.87 179.97 494.66 179.82C495.85 179.6 496.43 178.57 495.9 177.62C495.69 177.24 495.16 176.29 494.32 174.78C494.35 174.51 494.49 173.18 494.74 170.8C491.41 168.3 489.57 166.92 489.2 166.64C487.56 166.37 486.53 166.2 486.12 166.13C485.43 166.01 484.89 165.53 484.84 164.97C484.71 163.48 484.5 161.09 484.39 159.88C484.29 158.8 485.64 158.13 486.9 158.62C487.56 158.89 487.29 158.78 488.07 159.09C489.26 159.56 490.62 159.24 491.15 158.36C491.37 158 491.91 157.11 492.76 155.7C492.48 155.03 490.18 149.66 489.89 148.98C487.26 148.34 485.61 147.93 484.95 147.77C483.89 147.5 483.1 146.72 483.02 145.85C482.26 137.18 480.2 113.98 479.47 105.65C479.37 104.56 481.01 104.1 481.97 104.95C494.87 116.39 530.94 148.37 543.88 159.84C545.32 161.12 545.3 162.98 543.85 164C532.58 171.95 501.58 193.81 490.36 201.72C489.24 202.51 487.34 201.78 487.23 200.52C486.95 197.08 486.24 188.49 485.93 184.68C485.86 183.81 486.23 182.99 486.95 182.4Z" id="eQkzUvdkL"></path><path d="M481.97 184.03C480.74 184.9 479.97 185.44 479.67 185.66C479.03 186.11 478.63 186.73 478.53 187.43C478.46 187.92 478.45 188.03 478.39 188.45C478.25 189.4 478.38 190.38 478.78 191.32C478.94 191.71 479.34 192.68 479.99 194.23C480.22 194.86 480.36 195.26 480.41 195.42C480.73 196.3 481.5 197.07 482.53 197.52C482.66 197.58 481.33 197 481.43 197.04C482.46 197.49 483.06 198.41 482.88 199.29C482.88 199.29 483.07 198.34 483.04 198.48C482.95 198.95 483.28 199.46 483.84 199.7C484.64 200.05 485.66 200.49 486.35 200.79C487.27 201.18 488.32 201.19 489.14 200.79C489.67 200.53 488.74 200.98 488.97 200.87C490.78 199.99 491.97 198.5 492.24 196.76C492.3 196.34 492.3 196.33 492.42 195.54C492.51 194.98 492.89 194.51 493.47 194.22C494.17 193.89 494.38 193.79 494.84 193.56C496.21 192.91 497.23 191.9 497.77 190.68C498 190.17 498.56 188.9 499.46 186.86C498.95 185.86 498.63 185.23 498.5 184.98C498.06 184.13 497.17 183.45 496.09 183.13C495.93 183.09 495.51 182.97 494.85 182.78C494.12 182.66 490.46 182.05 483.89 180.97C482.74 182.81 482.1 183.83 481.97 184.03Z" id="a2FOWXCppg"></path><path d="M482.52 183.95C481.3 184.82 480.53 185.36 480.22 185.58C479.58 186.03 479.18 186.65 479.09 187.35C479.01 187.84 479 187.95 478.94 188.36C478.8 189.31 478.94 190.3 479.33 191.24C479.49 191.63 479.9 192.6 480.55 194.15C480.77 194.78 480.91 195.18 480.97 195.34C481.28 196.22 482.05 196.99 483.09 197.44C483.21 197.5 481.88 196.92 481.99 196.96C483.02 197.41 483.61 198.33 483.44 199.21C483.44 199.21 483.62 198.26 483.6 198.4C483.5 198.87 483.83 199.38 484.39 199.62C485.19 199.97 486.21 200.41 486.9 200.71C487.82 201.1 488.87 201.1 489.69 200.71C490.23 200.45 489.29 200.9 489.52 200.79C491.34 199.91 492.52 198.42 492.79 196.68C492.85 196.26 492.85 196.25 492.98 195.46C493.06 194.9 493.44 194.42 494.03 194.14C494.72 193.81 494.94 193.7 495.39 193.48C496.76 192.82 497.78 191.81 498.32 190.6C498.55 190.09 499.11 188.82 500.01 186.78C499.5 185.78 499.18 185.15 499.05 184.9C498.62 184.05 497.72 183.37 496.64 183.05C496.48 183 496.06 182.89 495.4 182.7C494.67 182.57 491.02 181.97 484.44 180.89C483.29 182.73 482.65 183.75 482.52 183.95Z" id="a1viJxOmi"></path><path d="M511.7 143.43C510.91 142.07 511.42 140.56 512.91 139.86C513.63 139.52 513.53 139.57 514.33 139.2C515.76 138.53 517.44 138.2 519.18 138.27C522.45 138.4 524.35 138.2 524.87 137.68C525 137.55 525.07 137.4 525.08 137.23C525.14 136.1 522.39 134.15 516.84 131.38C514.74 130.07 513.44 129.25 512.91 128.93C511.79 128.22 511.01 127.22 510.73 126.14C510.63 125.72 510.36 124.68 509.94 123.02C508.84 122.47 508.16 122.12 507.88 121.98C507.02 121.54 506.66 120.68 507.06 120C507.61 119.09 508.47 117.63 509 116.74C509.32 116.19 508.69 115.51 507.92 115.58C507.02 115.65 506.47 115.69 505.64 115.76C504.22 115.87 502.74 115.58 501.47 114.92C500.62 114.49 501.94 115.17 501.57 114.97C499.1 113.71 496.03 114.04 494.42 115.73C494.26 115.91 493.85 116.33 493.2 117.02C492.89 117.39 490.41 120.33 490.1 120.7C489.73 121.26 489.5 121.6 489.4 121.74C488.41 123.22 488.75 125.12 490.25 126.52C493.61 129.63 502.02 137.42 515.46 149.89C513.46 146.44 512.2 144.29 511.7 143.43Z" id="aY6bXwPm2"></path><path d="M504.27 180.87L504.27 180.99L504.27 181.12L504.26 181.24L504.24 181.36L504.22 181.48L504.19 181.6L504.16 181.72L504.12 181.83L504.08 181.95L504.03 182.06L503.97 182.16L503.92 182.27L503.85 182.37L503.78 182.47L503.71 182.57L503.63 182.67L503.55 182.76L503.47 182.85L503.38 182.94L503.28 183.02L503.18 183.11L503.08 183.18L502.97 183.26L502.86 183.33L502.75 183.4L502.63 183.46L502.51 183.53L502.38 183.58L502.26 183.64L502.12 183.69L501.99 183.73L501.85 183.78L501.71 183.81L501.57 183.85L501.42 183.88L501.27 183.9L501.12 183.92L500.97 183.94L500.81 183.95L498.68 184.07L491.93 183.98L488.69 183.8L488.46 183.79L488.23 183.77L488.01 183.74L487.78 183.71L487.56 183.67L487.34 183.63L487.12 183.58L486.91 183.53L486.69 183.48L486.48 183.41L486.27 183.35L486.06 183.27L485.86 183.2L485.66 183.12L485.45 183.03L485.26 182.94L485.06 182.85L484.87 182.75L484.68 182.65L484.5 182.54L484.32 182.43L484.14 182.31L483.97 182.2L483.8 182.07L483.64 181.95L483.47 181.82L483.32 181.68L483.16 181.55L483.02 181.41L482.87 181.26L482.74 181.11L482.6 180.96L482.47 180.81L482.35 180.65L482.23 180.49L482.12 180.33L482.02 180.17L481.91 180L481.82 179.83L481.73 179.65L481.69 179.58L482.72 180.16L490.08 182.47L499.71 182.57L500.34 169.52L488.97 165.82L481.28 167.78L483.12 165.81L483.18 165.75L483.24 165.68L483.29 165.62L483.34 165.55L483.39 165.49L483.44 165.42L483.48 165.35L483.52 165.28L483.57 165.21L483.6 165.14L483.64 165.06L483.68 164.99L483.74 164.84L483.77 164.77L483.79 164.69L483.82 164.62L483.86 164.46L483.87 164.38L483.89 164.31L483.9 164.23L483.91 164.15L483.92 164.07L483.93 163.99L483.93 163.91L483.93 163.83L483.93 163.75L483.93 163.67L483.92 163.59L483.92 163.51L483.91 163.42L483.89 163.34L483.88 163.26L483.86 163.18L483.84 163.1L483.8 162.94L483.77 162.85L483.75 162.77L482.33 158.86L483.51 159.11L486.2 157.86L489.73 158.89L498.22 162.19L497.24 156.43L497.26 156.43L497.37 156.4L497.49 156.37L497.6 156.33L497.7 156.29L497.81 156.25L497.91 156.2L498.01 156.15L498.11 156.09L498.2 156.04L498.3 155.98L498.38 155.91L498.47 155.85L498.55 155.78L498.63 155.7L498.7 155.63L498.78 155.55L498.84 155.47L498.9 155.38L498.96 155.3L499.02 155.21L499.07 155.12L499.11 155.02L499.15 154.92L501.7 148.36L504.26 180.74L504.27 180.87Z" id="b6C3b9O1H"></path><path d="M504.27 180.87L504.27 180.99L504.27 181.12L504.26 181.24L504.24 181.36L504.22 181.48L504.19 181.6L504.16 181.72L504.12 181.83L504.08 181.95L504.03 182.06L503.97 182.16L503.92 182.27L503.85 182.37L503.78 182.47L503.71 182.57L503.63 182.67L503.55 182.76L503.47 182.85L503.38 182.94L503.28 183.02L503.18 183.11L503.08 183.18L502.97 183.26L502.86 183.33L502.75 183.4L502.63 183.46L502.51 183.53L502.38 183.58L502.26 183.64L502.12 183.69L501.99 183.73L501.85 183.78L501.71 183.81L501.57 183.85L501.42 183.88L501.27 183.9L501.12 183.92L500.97 183.94L500.81 183.95L498.68 184.07L491.93 183.98L488.69 183.8L488.46 183.79L488.23 183.77L488.01 183.74L487.78 183.71L487.56 183.67L487.34 183.63L487.12 183.58L486.91 183.53L486.69 183.48L486.48 183.41L486.27 183.35L486.06 183.27L485.86 183.2L485.66 183.12L485.45 183.03L485.26 182.94L485.06 182.85L484.87 182.75L484.68 182.65L484.5 182.54L484.32 182.43L484.14 182.31L483.97 182.2L483.8 182.07L483.64 181.95L483.47 181.82L483.32 181.68L483.16 181.55L483.02 181.41L482.87 181.26L482.74 181.11L482.6 180.96L482.47 180.81L482.35 180.65L482.23 180.49L482.12 180.33L482.02 180.17L481.91 180L481.82 179.83L481.73 179.65L481.69 179.58L482.72 180.16L490.08 182.47L499.71 182.57L500.34 169.52L488.97 165.82L481.28 167.78L483.12 165.81L483.18 165.75L483.24 165.68L483.29 165.62L483.34 165.55L483.39 165.49L483.44 165.42L483.48 165.35L483.52 165.28L483.57 165.21L483.6 165.14L483.64 165.06L483.68 164.99L483.74 164.84L483.77 164.77L483.79 164.69L483.82 164.62L483.86 164.46L483.87 164.38L483.89 164.31L483.9 164.23L483.91 164.15L483.92 164.07L483.93 163.99L483.93 163.91L483.93 163.83L483.93 163.75L483.93 163.67L483.92 163.59L483.92 163.51L483.91 163.42L483.89 163.34L483.88 163.26L483.86 163.18L483.84 163.1L483.8 162.94L483.77 162.85L483.75 162.77L482.33 158.86L483.51 159.11L486.2 157.86L489.73 158.89L498.22 162.19L497.24 156.43L497.26 156.43L497.37 156.4L497.49 156.37L497.6 156.33L497.7 156.29L497.81 156.25L497.91 156.2L498.01 156.15L498.11 156.09L498.2 156.04L498.3 155.98L498.38 155.91L498.47 155.85L498.55 155.78L498.63 155.7L498.7 155.63L498.78 155.55L498.84 155.47L498.9 155.38L498.96 155.3L499.02 155.21L499.07 155.12L499.11 155.02L499.15 154.92L501.7 148.36L504.26 180.74L504.27 180.87Z" id="a9IW1dEr1"></path><path d="M495.07 122.33C494.59 123.57 492.96 124.23 491.3 123.85C490.3 123.62 489.87 123.52 488.78 123.27C487.15 122.9 485.62 122.23 484.32 121.3C481.44 119.27 479.52 118.25 478.57 118.26C478.34 118.26 478.15 118.31 477.99 118.4C476.97 119.03 477.69 121.73 480.16 126.49C480.87 128.46 481.31 129.7 481.49 130.2C481.85 131.2 481.65 132.23 480.95 133.03C480.69 133.33 480.03 134.07 478.97 135.27C479.47 136.25 479.78 136.86 479.9 137.11C480.24 137.79 479.82 138.5 478.98 138.65C477.69 138.88 475.52 139.27 474.26 139.49C473.6 139.61 473.5 140.32 474.1 140.65C474.99 141.14 475.88 141.63 476.71 142.09C477.89 142.74 478.82 143.66 479.35 144.72C479.72 145.47 479.25 144.53 479.43 144.89C480.48 146.99 483.11 148.4 485.83 148.33C486.18 148.32 487.04 148.3 488.44 148.26C489.02 148.22 493.73 147.91 494.32 147.87C495.26 147.73 495.84 147.65 496.07 147.62C498.02 147.35 499.32 146.01 499.22 144.4C498.97 140.67 498.34 131.36 497.35 116.46C496.13 119.59 495.38 121.54 495.07 122.33Z" id="a5ZFNzehFC"></path><path d="M495.07 122.33C494.59 123.57 492.96 124.23 491.3 123.85C490.3 123.62 489.87 123.52 488.78 123.27C487.15 122.9 485.62 122.23 484.32 121.3C481.44 119.27 479.52 118.25 478.57 118.26C478.34 118.26 478.15 118.31 477.99 118.4C476.97 119.03 477.69 121.73 480.16 126.49C480.87 128.46 481.31 129.7 481.49 130.2C481.85 131.2 481.65 132.23 480.95 133.03C480.69 133.33 480.03 134.07 478.97 135.27C479.47 136.25 479.78 136.86 479.9 137.11C480.24 137.79 479.82 138.5 478.98 138.65C477.69 138.88 475.52 139.27 474.26 139.49C473.6 139.61 473.5 140.32 474.1 140.65C474.99 141.14 475.88 141.63 476.71 142.09C477.89 142.74 478.82 143.66 479.35 144.72C479.72 145.47 479.25 144.53 479.43 144.89C480.48 146.99 483.11 148.4 485.83 148.33C486.18 148.32 487.04 148.3 488.44 148.26C489.02 148.22 493.73 147.91 494.32 147.87C495.26 147.73 495.84 147.65 496.07 147.62C498.02 147.35 499.32 146.01 499.22 144.4C498.97 140.67 498.34 131.36 497.35 116.46C496.13 119.59 495.38 121.54 495.07 122.33Z" id="a1UxKDRlvw"></path><path d="M510.41 169.73C510 168.36 509.74 167.51 509.63 167.17C509.42 166.46 508.91 165.81 508.2 165.32C507.7 164.98 507.59 164.91 507.16 164.61C506.2 163.95 505.08 163.46 503.89 163.16C503.4 163.04 502.18 162.74 500.23 162.26C499.46 162.04 498.97 161.9 498.78 161.84C497.69 161.53 496.53 161.61 495.6 162.05C495.49 162.1 496.68 161.53 496.59 161.58C495.67 162.02 494.42 161.88 493.55 161.23C493.55 161.23 494.49 161.93 494.36 161.83C493.88 161.48 493.2 161.4 492.7 161.65C491.99 161.99 491.08 162.44 490.46 162.73C489.65 163.13 489.2 163.86 489.28 164.66C489.33 165.19 489.24 164.27 489.26 164.49C489.45 166.27 490.55 167.99 492.32 169.22C492.75 169.51 492.75 169.51 493.55 170.07C494.12 170.46 494.48 171.02 494.53 171.59C494.6 172.27 494.62 172.48 494.67 172.93C494.8 174.26 495.46 175.58 496.54 176.68C497 177.14 498.13 178.29 499.95 180.13C501.25 180.37 502.06 180.53 502.39 180.59C503.49 180.8 504.61 180.59 505.4 180.03C505.52 179.95 505.83 179.73 506.31 179.39C506.75 178.96 508.95 176.79 512.91 172.89C511.41 171 510.58 169.94 510.41 169.73Z" id="aoGuZhnN"></path><path d="M510.41 169.73C510 168.36 509.74 167.51 509.63 167.17C509.42 166.46 508.91 165.81 508.2 165.32C507.7 164.98 507.59 164.91 507.16 164.61C506.2 163.95 505.08 163.46 503.89 163.16C503.4 163.04 502.18 162.74 500.23 162.26C499.46 162.04 498.97 161.9 498.78 161.84C497.69 161.53 496.53 161.61 495.6 162.05C495.49 162.1 496.68 161.53 496.59 161.58C495.67 162.02 494.42 161.88 493.55 161.23C493.55 161.23 494.49 161.93 494.36 161.83C493.88 161.48 493.2 161.4 492.7 161.65C491.99 161.99 491.08 162.44 490.46 162.73C489.65 163.13 489.2 163.86 489.28 164.66C489.33 165.19 489.24 164.27 489.26 164.49C489.45 166.27 490.55 167.99 492.32 169.22C492.75 169.51 492.75 169.51 493.55 170.07C494.12 170.46 494.48 171.02 494.53 171.59C494.6 172.27 494.62 172.48 494.67 172.93C494.8 174.26 495.46 175.58 496.54 176.68C497 177.14 498.13 178.29 499.95 180.13C501.25 180.37 502.06 180.53 502.39 180.59C503.49 180.8 504.61 180.59 505.4 180.03C505.52 179.95 505.83 179.73 506.31 179.39C506.75 178.96 508.95 176.79 512.91 172.89C511.41 171 510.58 169.94 510.41 169.73Z" id="c3oFFiRJLz"></path><path d="M506.76 148.6C506.35 147.23 506.09 146.37 505.98 146.03C505.77 145.32 505.26 144.68 504.55 144.19C504.05 143.84 503.94 143.77 503.52 143.48C502.55 142.82 501.43 142.32 500.24 142.03C499.76 141.91 498.54 141.61 496.58 141.13C495.81 140.9 495.32 140.76 495.13 140.71C494.04 140.39 492.88 140.47 491.96 140.91C491.84 140.97 493.03 140.39 492.94 140.44C492.02 140.88 490.77 140.74 489.9 140.1C489.9 140.1 490.84 140.79 490.71 140.7C490.23 140.34 489.55 140.27 489.05 140.51C488.34 140.86 487.43 141.3 486.81 141.6C486 141.99 485.55 142.72 485.63 143.52C485.68 144.05 485.59 143.13 485.61 143.36C485.79 145.14 486.91 146.85 488.67 148.08C489.1 148.37 489.1 148.38 489.91 148.93C490.47 149.33 490.83 149.88 490.89 150.45C490.95 151.13 490.97 151.34 491.02 151.79C491.15 153.13 491.81 154.44 492.89 155.54C493.35 156 494.48 157.15 496.3 158.99C497.6 159.24 498.41 159.39 498.74 159.45C499.85 159.66 500.96 159.46 501.75 158.89C501.87 158.81 502.18 158.6 502.66 158.25C503.1 157.82 505.3 155.65 509.26 151.75C507.76 149.86 506.93 148.81 506.76 148.6Z" id="j33iWiVub"></path><path d="M506.76 148.6C506.35 147.23 506.09 146.37 505.98 146.03C505.77 145.32 505.26 144.68 504.55 144.19C504.05 143.84 503.94 143.77 503.52 143.48C502.55 142.82 501.43 142.32 500.24 142.03C499.76 141.91 498.54 141.61 496.58 141.13C495.81 140.9 495.32 140.76 495.13 140.71C494.04 140.39 492.88 140.47 491.96 140.91C491.84 140.97 493.03 140.39 492.94 140.44C492.02 140.88 490.77 140.74 489.9 140.1C489.9 140.1 490.84 140.79 490.71 140.7C490.23 140.34 489.55 140.27 489.05 140.51C488.34 140.86 487.43 141.3 486.81 141.6C486 141.99 485.55 142.72 485.63 143.52C485.68 144.05 485.59 143.13 485.61 143.36C485.79 145.14 486.91 146.85 488.67 148.08C489.1 148.37 489.1 148.38 489.91 148.93C490.47 149.33 490.83 149.88 490.89 150.45C490.95 151.13 490.97 151.34 491.02 151.79C491.15 153.13 491.81 154.44 492.89 155.54C493.35 156 494.48 157.15 496.3 158.99C497.6 159.24 498.41 159.39 498.74 159.45C499.85 159.66 500.96 159.46 501.75 158.89C501.87 158.81 502.18 158.6 502.66 158.25C503.1 157.82 505.3 155.65 509.26 151.75C507.76 149.86 506.93 148.81 506.76 148.6Z" id="a31uZsU9Ve"></path><path d="M488.9 192.69L488.31 192.06L487.74 191.42L487.21 190.78L486.7 190.14L486.22 189.49L485.76 188.84L485.34 188.19L484.94 187.54L484.57 186.89L484.23 186.23L483.91 185.58L483.63 184.94L483.37 184.29L483.14 183.65L482.94 183.01L482.77 182.38L482.63 181.75L482.52 181.13L482.44 180.52L482.38 179.91L482.37 179.66L483.5 180.3L490.85 182.6L500.48 182.71L501.08 170.39L501.69 170.57L502.47 170.82L503.25 171.1L504.03 171.39L504.82 171.71L505.6 172.06L506.37 172.42L507.15 172.81L507.92 173.22L508.68 173.65L509.44 174.1L510.19 174.57L510.93 175.07L511.67 175.58L512.39 176.12L513.1 176.67L513.81 177.25L514.5 177.84L515.16 178.45L515.81 179.07L516.42 179.7L517.01 180.32L517.31 180.66L494.04 197.07L493.65 196.8L492.93 196.26L492.22 195.71L491.51 195.13L490.82 194.54L490.16 193.93L489.51 193.31L488.9 192.69Z" id="f1tP18SIbV"></path><path d="M488.9 192.69L488.31 192.06L487.74 191.42L487.21 190.78L486.7 190.14L486.22 189.49L485.76 188.84L485.34 188.19L484.94 187.54L484.57 186.89L484.23 186.23L483.91 185.58L483.63 184.94L483.37 184.29L483.14 183.65L482.94 183.01L482.77 182.38L482.63 181.75L482.52 181.13L482.44 180.52L482.38 179.91L482.37 179.66L483.5 180.3L490.85 182.6L500.48 182.71L501.08 170.39L501.69 170.57L502.47 170.82L503.25 171.1L504.03 171.39L504.82 171.71L505.6 172.06L506.37 172.42L507.15 172.81L507.92 173.22L508.68 173.65L509.44 174.1L510.19 174.57L510.93 175.07L511.67 175.58L512.39 176.12L513.1 176.67L513.81 177.25L514.5 177.84L515.16 178.45L515.81 179.07L516.42 179.7L517.01 180.32L517.31 180.66L494.04 197.07L493.65 196.8L492.93 196.26L492.22 195.71L491.51 195.13L490.82 194.54L490.16 193.93L489.51 193.31L488.9 192.69Z" id="c1wieF6tG"></path><path d="M478.65 147.41L478.27 146.86L477.9 146.3L477.56 145.73L477.23 145.15L476.93 144.57L476.66 143.97L476.41 143.37L476.18 142.77L475.98 142.15L475.8 141.54L475.64 140.92L475.52 140.29L475.42 139.66L475.35 139.04L475.3 138.4L475.28 137.77L475.29 137.14L475.33 136.51L475.4 135.88L475.5 135.25L475.63 134.62L475.78 134.01L475.97 133.4L476.18 132.82L476.42 132.25L476.68 131.69L476.96 131.15L477.27 130.63L477.6 130.13L477.96 129.64L478.34 129.17L478.74 128.72L479.16 128.29L479.59 127.87L480.05 127.47L480.53 127.1L481.02 126.74L481.53 126.4L482.06 126.09L482.6 125.79L483.16 125.51L483.73 125.26L484.32 125.03L484.92 124.82L485.53 124.63L486.15 124.46L486.78 124.32L487.43 124.19L488.08 124.1L488.75 124.02L489.42 123.97L490.1 123.95L490.78 123.95L491.48 123.97L492.17 124.02L492.88 124.09L493.58 124.19L494.3 124.32L495.01 124.47L495.73 124.65L496.45 124.86L497.16 125.09L497.86 125.35L498.54 125.62L499.21 125.92L499.87 126.24L500.51 126.58L501.14 126.94L501.75 127.32L502.35 127.71L502.93 128.12L503.49 128.55L504.03 129L504.56 129.46L505.07 129.93L505.56 130.42L506.02 130.92L506.47 131.44L506.91 131.97L507.32 132.5L507.7 133.05L508.07 133.61L508.41 134.18L508.74 134.76L509.04 135.35L509.31 135.94L509.56 136.54L509.79 137.15L509.99 137.76L510.17 138.37L510.32 138.99L510.45 139.62L510.55 140.25L510.62 140.88L510.67 141.51L510.69 142.14L510.68 142.77L510.64 143.4L510.57 144.03L510.47 144.66L510.34 145.29L510.19 145.9L510 146.51L509.79 147.09L509.55 147.66L509.29 148.22L509.01 148.76L508.7 149.28L508.36 149.78L508.01 150.27L507.63 150.74L507.23 151.19L506.81 151.63L506.38 152.04L505.92 152.44L505.44 152.81L504.95 153.17L504.44 153.51L503.91 153.83L503.37 154.12L502.81 154.4L502.24 154.65L501.65 154.88L501.05 155.1L500.44 155.29L499.82 155.45L499.18 155.6L498.54 155.72L497.89 155.81L497.22 155.89L497.18 155.89L495.91 148.43L489.46 146.06L486.67 148.47L486.6 148.53L486.53 148.59L486.45 148.64L486.38 148.69L486.3 148.74L486.23 148.79L486.15 148.84L486.07 148.89L485.99 148.93L485.9 148.97L485.82 149.01L485.73 149.05L485.65 149.09L485.56 149.12L485.47 149.16L485.38 149.19L485.29 149.22L485.19 149.24L485.1 149.27L485.01 149.29L484.91 149.32L484.81 149.34L484.72 149.35L484.62 149.37L484.52 149.38L484.42 149.4L484.32 149.41L484.22 149.41L484.12 149.42L484.02 149.42L483.91 149.43L483.81 149.43L483.71 149.43L483.6 149.42L483.5 149.42L483.39 149.41L483.29 149.4L483.19 149.39L483.08 149.37L482.98 149.36L479.81 148.83L479.49 148.47L479.06 147.95L478.65 147.41Z" id="i20J7U9zIK"></path><path d="M478.65 147.41L478.27 146.86L477.9 146.3L477.56 145.73L477.23 145.15L476.93 144.57L476.66 143.97L476.41 143.37L476.18 142.77L475.98 142.15L475.8 141.54L475.64 140.92L475.52 140.29L475.42 139.66L475.35 139.04L475.3 138.4L475.28 137.77L475.29 137.14L475.33 136.51L475.4 135.88L475.5 135.25L475.63 134.62L475.78 134.01L475.97 133.4L476.18 132.82L476.42 132.25L476.68 131.69L476.96 131.15L477.27 130.63L477.6 130.13L477.96 129.64L478.34 129.17L478.74 128.72L479.16 128.29L479.59 127.87L480.05 127.47L480.53 127.1L481.02 126.74L481.53 126.4L482.06 126.09L482.6 125.79L483.16 125.51L483.73 125.26L484.32 125.03L484.92 124.82L485.53 124.63L486.15 124.46L486.78 124.32L487.43 124.19L488.08 124.1L488.75 124.02L489.42 123.97L490.1 123.95L490.78 123.95L491.48 123.97L492.17 124.02L492.88 124.09L493.58 124.19L494.3 124.32L495.01 124.47L495.73 124.65L496.45 124.86L497.16 125.09L497.86 125.35L498.54 125.62L499.21 125.92L499.87 126.24L500.51 126.58L501.14 126.94L501.75 127.32L502.35 127.71L502.93 128.12L503.49 128.55L504.03 129L504.56 129.46L505.07 129.93L505.56 130.42L506.02 130.92L506.47 131.44L506.91 131.97L507.32 132.5L507.7 133.05L508.07 133.61L508.41 134.18L508.74 134.76L509.04 135.35L509.31 135.94L509.56 136.54L509.79 137.15L509.99 137.76L510.17 138.37L510.32 138.99L510.45 139.62L510.55 140.25L510.62 140.88L510.67 141.51L510.69 142.14L510.68 142.77L510.64 143.4L510.57 144.03L510.47 144.66L510.34 145.29L510.19 145.9L510 146.51L509.79 147.09L509.55 147.66L509.29 148.22L509.01 148.76L508.7 149.28L508.36 149.78L508.01 150.27L507.63 150.74L507.23 151.19L506.81 151.63L506.38 152.04L505.92 152.44L505.44 152.81L504.95 153.17L504.44 153.51L503.91 153.83L503.37 154.12L502.81 154.4L502.24 154.65L501.65 154.88L501.05 155.1L500.44 155.29L499.82 155.45L499.18 155.6L498.54 155.72L497.89 155.81L497.22 155.89L497.18 155.89L495.91 148.43L489.46 146.06L486.67 148.47L486.6 148.53L486.53 148.59L486.45 148.64L486.38 148.69L486.3 148.74L486.23 148.79L486.15 148.84L486.07 148.89L485.99 148.93L485.9 148.97L485.82 149.01L485.73 149.05L485.65 149.09L485.56 149.12L485.47 149.16L485.38 149.19L485.29 149.22L485.19 149.24L485.1 149.27L485.01 149.29L484.91 149.32L484.81 149.34L484.72 149.35L484.62 149.37L484.52 149.38L484.42 149.4L484.32 149.41L484.22 149.41L484.12 149.42L484.02 149.42L483.91 149.43L483.81 149.43L483.71 149.43L483.6 149.42L483.5 149.42L483.39 149.41L483.29 149.4L483.19 149.39L483.08 149.37L482.98 149.36L479.81 148.83L479.49 148.47L479.06 147.95L478.65 147.41Z" id="d3cuMTftD"></path><path d="M499.03 185.19L499.02 185.18L499.01 185.17L499 185.16L498.99 185.15L498.99 185.14L498.98 185.13L498.97 185.11L498.97 185.1L498.97 185.09L498.96 185.08L498.96 185.07L498.95 185.06L498.95 185.04L498.95 185.03L498.95 185.02L498.1 173.95L498.09 173.83L498.08 173.71L498.07 173.59L498.05 173.47L498.03 173.34L498.02 173.23L498 173.1L497.97 172.99L497.95 172.87L497.93 172.75L497.9 172.63L497.87 172.51L497.84 172.39L497.81 172.27L497.77 172.15L497.74 172.03L497.7 171.91L497.67 171.79L497.62 171.68L497.58 171.56L497.54 171.44L497.5 171.32L497.45 171.21L497.4 171.09L497.35 170.97L497.3 170.86L497.25 170.74L497.19 170.62L497.14 170.51L497.08 170.39L497.02 170.28L496.96 170.17L496.9 170.05L496.83 169.94L496.77 169.83L496.7 169.71L496.63 169.6L496.56 169.49L496.49 169.38L496.42 169.27L491.29 161.59L489.73 158.88L489.73 158.89L498.22 162.19L495.86 148.32L489.41 145.94L486.62 148.35L486.55 148.41L486.47 148.47L486.4 148.52L486.33 148.58L486.25 148.63L486.18 148.68L486.1 148.72L486.02 148.77L485.93 148.81L485.85 148.86L485.77 148.89L485.68 148.93L485.59 148.97L485.51 149.01L485.42 149.04L485.33 149.07L485.24 149.1L485.14 149.13L485.05 149.15L484.96 149.18L484.93 149.18L480.8 140.71L480.71 140.51L480.61 140.31L480.52 140.1L480.44 139.9L480.35 139.7L480.27 139.49L480.2 139.29L480.12 139.08L480.05 138.87L479.99 138.67L479.92 138.46L479.86 138.25L479.8 138.05L479.75 137.84L479.7 137.63L479.65 137.43L479.61 137.22L479.57 137.01L479.53 136.8L479.5 136.59L479.47 136.39L479.44 136.18L479.41 135.97L479.39 135.76L479.38 135.55L479.36 135.34L479.35 135.14L479.34 134.93L479.34 134.72L479.34 134.51L479.34 134.3L479.35 134.1L479.36 133.89L479.37 133.68L479.39 133.48L479.41 133.27L479.43 133.06L479.46 132.86L479.49 132.66L479.52 132.45L482.91 112.84L482.91 112.83L482.91 112.83L482.92 112.82L482.92 112.82L482.92 112.81L482.92 112.81L482.92 112.8L482.93 112.8L482.93 112.8L482.93 112.79L482.93 112.79L482.94 112.78L482.94 112.78L482.94 112.78L482.95 112.77L482.95 112.77L482.95 112.77L482.96 112.76L482.96 112.76L482.97 112.76L482.97 112.75L482.97 112.75L482.98 112.75L482.98 112.75L482.99 112.74L482.99 112.74L483 112.74L483 112.74L483.01 112.74L483.02 112.73L483.02 112.73L483.03 112.73L483.03 112.73L483.04 112.73L483.04 112.73L483.05 112.73L483.06 112.73L483.06 112.73L483.07 112.73L483.07 112.73L494.83 113.02L494.84 113.02L494.84 113.02L494.85 113.02L494.85 113.02L494.86 113.02L494.86 113.02L494.87 113.02L494.87 113.02L494.88 113.02L494.88 113.03L494.89 113.03L494.89 113.03L494.9 113.03L494.9 113.03L494.91 113.04L494.91 113.04L494.92 113.04L494.92 113.04L494.92 113.05L494.93 113.05L494.93 113.05L494.94 113.05L494.94 113.06L494.94 113.06L494.95 113.06L494.95 113.07L494.95 113.07L494.95 113.07L494.96 113.08L494.96 113.08L494.96 113.08L494.97 113.09L494.97 113.09L494.97 113.1L494.97 113.1L494.97 113.1L494.98 113.11L494.98 113.11L494.98 113.12L494.98 113.12L510.98 185.52L510.98 185.52L510.98 185.53L510.98 185.53L510.98 185.53L510.98 185.54L510.98 185.54L510.98 185.55L510.98 185.55L510.98 185.55L510.97 185.56L510.97 185.56L510.97 185.56L510.97 185.57L510.97 185.57L510.97 185.57L510.96 185.58L510.96 185.58L510.96 185.58L510.96 185.59L510.95 185.59L510.95 185.59L510.95 185.59L510.94 185.6L510.94 185.6L510.94 185.6L510.93 185.6L510.93 185.6L510.93 185.61L510.92 185.61L510.92 185.61L510.91 185.61L510.91 185.61L510.91 185.61L510.9 185.61L510.9 185.61L510.89 185.61L510.89 185.62L510.88 185.62L510.88 185.62L510.87 185.62L499.35 185.33L499.34 185.33L499.32 185.33L499.3 185.33L499.29 185.33L499.27 185.32L499.26 185.32L499.24 185.32L499.23 185.31L499.22 185.31L499.2 185.3L499.19 185.3L499.17 185.29L499.16 185.29L499.15 185.28L499.14 185.27L499.12 185.27L499.11 185.26L499.1 185.25L499.09 185.24L499.08 185.24L499.07 185.23L499.05 185.22L499.05 185.21L499.03 185.2L499.03 185.19Z" id="e2pRQ0yT4a"></path><path d="M499.03 185.19L499.02 185.18L499.01 185.17L499 185.16L498.99 185.15L498.99 185.14L498.98 185.13L498.97 185.11L498.97 185.1L498.97 185.09L498.96 185.08L498.96 185.07L498.95 185.06L498.95 185.04L498.95 185.03L498.95 185.02L498.1 173.95L498.09 173.83L498.08 173.71L498.07 173.59L498.05 173.47L498.03 173.34L498.02 173.23L498 173.1L497.97 172.99L497.95 172.87L497.93 172.75L497.9 172.63L497.87 172.51L497.84 172.39L497.81 172.27L497.77 172.15L497.74 172.03L497.7 171.91L497.67 171.79L497.62 171.68L497.58 171.56L497.54 171.44L497.5 171.32L497.45 171.21L497.4 171.09L497.35 170.97L497.3 170.86L497.25 170.74L497.19 170.62L497.14 170.51L497.08 170.39L497.02 170.28L496.96 170.17L496.9 170.05L496.83 169.94L496.77 169.83L496.7 169.71L496.63 169.6L496.56 169.49L496.49 169.38L496.42 169.27L491.29 161.59L489.73 158.88L489.73 158.89L498.22 162.19L495.86 148.32L489.41 145.94L486.62 148.35L486.55 148.41L486.47 148.47L486.4 148.52L486.33 148.58L486.25 148.63L486.18 148.68L486.1 148.72L486.02 148.77L485.93 148.81L485.85 148.86L485.77 148.89L485.68 148.93L485.59 148.97L485.51 149.01L485.42 149.04L485.33 149.07L485.24 149.1L485.14 149.13L485.05 149.15L484.96 149.18L484.93 149.18L480.8 140.71L480.71 140.51L480.61 140.31L480.52 140.1L480.44 139.9L480.35 139.7L480.27 139.49L480.2 139.29L480.12 139.08L480.05 138.87L479.99 138.67L479.92 138.46L479.86 138.25L479.8 138.05L479.75 137.84L479.7 137.63L479.65 137.43L479.61 137.22L479.57 137.01L479.53 136.8L479.5 136.59L479.47 136.39L479.44 136.18L479.41 135.97L479.39 135.76L479.38 135.55L479.36 135.34L479.35 135.14L479.34 134.93L479.34 134.72L479.34 134.51L479.34 134.3L479.35 134.1L479.36 133.89L479.37 133.68L479.39 133.48L479.41 133.27L479.43 133.06L479.46 132.86L479.49 132.66L479.52 132.45L482.91 112.84L482.91 112.83L482.91 112.83L482.92 112.82L482.92 112.82L482.92 112.81L482.92 112.81L482.92 112.8L482.93 112.8L482.93 112.8L482.93 112.79L482.93 112.79L482.94 112.78L482.94 112.78L482.94 112.78L482.95 112.77L482.95 112.77L482.95 112.77L482.96 112.76L482.96 112.76L482.97 112.76L482.97 112.75L482.97 112.75L482.98 112.75L482.98 112.75L482.99 112.74L482.99 112.74L483 112.74L483 112.74L483.01 112.74L483.02 112.73L483.02 112.73L483.03 112.73L483.03 112.73L483.04 112.73L483.04 112.73L483.05 112.73L483.06 112.73L483.06 112.73L483.07 112.73L483.07 112.73L494.83 113.02L494.84 113.02L494.84 113.02L494.85 113.02L494.85 113.02L494.86 113.02L494.86 113.02L494.87 113.02L494.87 113.02L494.88 113.02L494.88 113.03L494.89 113.03L494.89 113.03L494.9 113.03L494.9 113.03L494.91 113.04L494.91 113.04L494.92 113.04L494.92 113.04L494.92 113.05L494.93 113.05L494.93 113.05L494.94 113.05L494.94 113.06L494.94 113.06L494.95 113.06L494.95 113.07L494.95 113.07L494.95 113.07L494.96 113.08L494.96 113.08L494.96 113.08L494.97 113.09L494.97 113.09L494.97 113.1L494.97 113.1L494.97 113.1L494.98 113.11L494.98 113.11L494.98 113.12L494.98 113.12L510.98 185.52L510.98 185.52L510.98 185.53L510.98 185.53L510.98 185.53L510.98 185.54L510.98 185.54L510.98 185.55L510.98 185.55L510.98 185.55L510.97 185.56L510.97 185.56L510.97 185.56L510.97 185.57L510.97 185.57L510.97 185.57L510.96 185.58L510.96 185.58L510.96 185.58L510.96 185.59L510.95 185.59L510.95 185.59L510.95 185.59L510.94 185.6L510.94 185.6L510.94 185.6L510.93 185.6L510.93 185.6L510.93 185.61L510.92 185.61L510.92 185.61L510.91 185.61L510.91 185.61L510.91 185.61L510.9 185.61L510.9 185.61L510.89 185.61L510.89 185.62L510.88 185.62L510.88 185.62L510.87 185.62L499.35 185.33L499.34 185.33L499.32 185.33L499.3 185.33L499.29 185.33L499.27 185.32L499.26 185.32L499.24 185.32L499.23 185.31L499.22 185.31L499.2 185.3L499.19 185.3L499.17 185.29L499.16 185.29L499.15 185.28L499.14 185.27L499.12 185.27L499.11 185.26L499.1 185.25L499.09 185.24L499.08 185.24L499.07 185.23L499.05 185.22L499.05 185.21L499.03 185.2L499.03 185.19Z" id="gw9DZihR"></path><path d="M502.5 172.39L502.5 172.38L502.49 172.37L502.48 172.36L502.48 172.35L502.47 172.34L502.47 172.33L502.46 172.32L502.46 172.31L502.45 172.29L502.45 172.28L502.45 172.27L502.45 172.26L502.45 172.25L502.45 172.24L502.45 172.23L502.45 172.21L502.45 172.2L502.46 172.19L502.85 170.91L502.88 170.8L502.91 170.69L502.93 170.58L502.95 170.46L502.96 170.35L502.97 170.24L502.97 170.13L502.97 170.01L502.96 169.9L502.95 169.79L502.94 169.67L502.92 169.56L502.9 169.45L502.87 169.34L502.84 169.23L502.8 169.12L502.76 169.01L502.72 168.9L502.67 168.79L502.62 168.68L502.56 168.58L502.5 168.47L502.44 168.37L502.37 168.27L502.3 168.17L502.23 168.07L502.15 167.97L502.06 167.87L501.98 167.77L501.89 167.68L501.79 167.59L501.7 167.5L501.59 167.41L501.49 167.33L501.38 167.25L501.27 167.16L501.16 167.09L501.04 167.01L500.92 166.93L500.8 166.86L499.44 166.11L499.33 166.04L499.22 165.98L499.1 165.92L498.99 165.85L498.88 165.79L498.77 165.72L498.67 165.66L498.56 165.59L498.45 165.53L498.34 165.46L498.23 165.39L498.13 165.32L498.02 165.26L497.91 165.19L497.81 165.12L497.7 165.05L497.6 164.98L497.49 164.91L497.39 164.84L497.29 164.77L497.19 164.7L497.08 164.62L497.03 164.59L505.54 165.71L505.39 161.6L498.84 160.78L495.08 161.5L495 161.51L494.93 161.52L494.86 161.54L494.79 161.55L494.72 161.56L494.64 161.57L494.57 161.58L494.5 161.59L494.43 161.6L494.35 161.61L494.28 161.62L494.21 161.63L494.13 161.63L494.06 161.64L493.99 161.65L493.91 161.66L493.84 161.66L493.77 161.67L493.69 161.67L493.62 161.68L493.54 161.68L493.5 161.68L493.13 161.36L492.96 161.21L492.8 161.06L492.65 160.91L492.51 160.75L492.37 160.58L492.24 160.42L492.12 160.25L492.01 160.09L491.91 159.91L491.82 159.74L491.73 159.57L491.65 159.39L491.58 159.22L491.52 159.04L491.47 158.86L491.42 158.68L491.39 158.5L491.36 158.32L491.34 158.14L491.33 157.97L491.33 157.79L491.33 157.61L491.34 157.43L491.37 157.26L491.4 157.08L491.43 156.91L491.48 156.74L491.54 156.57L491.6 156.4L491.67 156.23L491.75 156.07L491.84 155.91L491.94 155.75L492.04 155.6L492.16 155.45L492.28 155.3L492.41 155.16L492.55 155.02L492.7 154.88L492.86 154.75L497.49 151.01L497.5 151L497.5 151L497.51 150.99L497.51 150.99L497.52 150.99L497.52 150.98L497.53 150.98L497.53 150.98L497.54 150.97L497.55 150.97L497.55 150.97L497.56 150.96L497.56 150.96L497.57 150.96L497.58 150.96L497.58 150.95L497.59 150.95L497.6 150.95L497.6 150.95L497.61 150.94L497.62 150.94L497.62 150.94L497.63 150.94L497.64 150.94L497.64 150.94L497.65 150.93L497.65 150.93L497.66 150.93L497.67 150.93L497.68 150.93L497.68 150.93L497.69 150.93L497.7 150.93L497.7 150.93L497.71 150.93L497.72 150.93L497.73 150.93L497.74 150.93L497.74 150.93L497.75 150.93L510.38 151.24L510.38 151.24L510.39 151.24L510.39 151.24L510.4 151.24L510.41 151.24L510.41 151.24L510.42 151.24L510.42 151.24L510.43 151.24L510.43 151.25L510.44 151.25L510.44 151.25L510.45 151.25L510.45 151.25L510.46 151.26L510.46 151.26L510.47 151.26L510.47 151.27L510.47 151.27L510.48 151.27L510.48 151.27L510.49 151.28L510.49 151.28L510.5 151.28L510.5 151.29L510.5 151.29L510.51 151.29L510.51 151.3L510.51 151.3L510.51 151.31L510.52 151.31L510.52 151.31L510.52 151.32L510.53 151.32L510.53 151.33L510.53 151.33L510.53 151.33L510.53 151.34L510.53 151.34L510.53 151.35L515.25 172.71L515.26 172.72L515.26 172.72L515.26 172.72L515.26 172.73L515.26 172.73L515.26 172.74L515.26 172.74L515.26 172.74L515.25 172.75L515.25 172.75L515.25 172.76L515.25 172.76L515.25 172.76L515.25 172.77L515.24 172.77L515.24 172.77L515.24 172.78L515.24 172.78L515.24 172.78L515.23 172.79L515.23 172.79L515.22 172.79L515.22 172.79L515.22 172.8L515.21 172.8L515.21 172.8L515.21 172.8L515.2 172.8L515.2 172.81L515.19 172.81L515.19 172.81L515.19 172.81L515.18 172.81L515.18 172.81L515.17 172.81L515.17 172.81L515.16 172.82L515.15 172.81L515.15 172.82L515.15 172.82L502.77 172.51L502.75 172.51L502.74 172.51L502.73 172.51L502.71 172.51L502.7 172.5L502.68 172.5L502.67 172.5L502.66 172.49L502.64 172.48L502.63 172.48L502.62 172.47L502.6 172.47L502.59 172.46L502.58 172.46L502.57 172.45L502.56 172.44L502.55 172.43L502.54 172.42L502.53 172.42L502.52 172.41L502.52 172.41L502.51 172.4L502.5 172.39Z" id="ayvXn31t3"></path><path d="M502.5 172.39L502.5 172.38L502.49 172.37L502.48 172.36L502.48 172.35L502.47 172.34L502.47 172.33L502.46 172.32L502.46 172.31L502.45 172.29L502.45 172.28L502.45 172.27L502.45 172.26L502.45 172.25L502.45 172.24L502.45 172.23L502.45 172.21L502.45 172.2L502.46 172.19L502.85 170.91L502.88 170.8L502.91 170.69L502.93 170.58L502.95 170.46L502.96 170.35L502.97 170.24L502.97 170.13L502.97 170.01L502.96 169.9L502.95 169.79L502.94 169.67L502.92 169.56L502.9 169.45L502.87 169.34L502.84 169.23L502.8 169.12L502.76 169.01L502.72 168.9L502.67 168.79L502.62 168.68L502.56 168.58L502.5 168.47L502.44 168.37L502.37 168.27L502.3 168.17L502.23 168.07L502.15 167.97L502.06 167.87L501.98 167.77L501.89 167.68L501.79 167.59L501.7 167.5L501.59 167.41L501.49 167.33L501.38 167.25L501.27 167.16L501.16 167.09L501.04 167.01L500.92 166.93L500.8 166.86L499.44 166.11L499.33 166.04L499.22 165.98L499.1 165.92L498.99 165.85L498.88 165.79L498.77 165.72L498.67 165.66L498.56 165.59L498.45 165.53L498.34 165.46L498.23 165.39L498.13 165.32L498.02 165.26L497.91 165.19L497.81 165.12L497.7 165.05L497.6 164.98L497.49 164.91L497.39 164.84L497.29 164.77L497.19 164.7L497.08 164.62L497.03 164.59L505.54 165.71L505.39 161.6L498.84 160.78L495.08 161.5L495 161.51L494.93 161.52L494.86 161.54L494.79 161.55L494.72 161.56L494.64 161.57L494.57 161.58L494.5 161.59L494.43 161.6L494.35 161.61L494.28 161.62L494.21 161.63L494.13 161.63L494.06 161.64L493.99 161.65L493.91 161.66L493.84 161.66L493.77 161.67L493.69 161.67L493.62 161.68L493.54 161.68L493.5 161.68L493.13 161.36L492.96 161.21L492.8 161.06L492.65 160.91L492.51 160.75L492.37 160.58L492.24 160.42L492.12 160.25L492.01 160.09L491.91 159.91L491.82 159.74L491.73 159.57L491.65 159.39L491.58 159.22L491.52 159.04L491.47 158.86L491.42 158.68L491.39 158.5L491.36 158.32L491.34 158.14L491.33 157.97L491.33 157.79L491.33 157.61L491.34 157.43L491.37 157.26L491.4 157.08L491.43 156.91L491.48 156.74L491.54 156.57L491.6 156.4L491.67 156.23L491.75 156.07L491.84 155.91L491.94 155.75L492.04 155.6L492.16 155.45L492.28 155.3L492.41 155.16L492.55 155.02L492.7 154.88L492.86 154.75L497.49 151.01L497.5 151L497.5 151L497.51 150.99L497.51 150.99L497.52 150.99L497.52 150.98L497.53 150.98L497.53 150.98L497.54 150.97L497.55 150.97L497.55 150.97L497.56 150.96L497.56 150.96L497.57 150.96L497.58 150.96L497.58 150.95L497.59 150.95L497.6 150.95L497.6 150.95L497.61 150.94L497.62 150.94L497.62 150.94L497.63 150.94L497.64 150.94L497.64 150.94L497.65 150.93L497.65 150.93L497.66 150.93L497.67 150.93L497.68 150.93L497.68 150.93L497.69 150.93L497.7 150.93L497.7 150.93L497.71 150.93L497.72 150.93L497.73 150.93L497.74 150.93L497.74 150.93L497.75 150.93L510.38 151.24L510.38 151.24L510.39 151.24L510.39 151.24L510.4 151.24L510.41 151.24L510.41 151.24L510.42 151.24L510.42 151.24L510.43 151.24L510.43 151.25L510.44 151.25L510.44 151.25L510.45 151.25L510.45 151.25L510.46 151.26L510.46 151.26L510.47 151.26L510.47 151.27L510.47 151.27L510.48 151.27L510.48 151.27L510.49 151.28L510.49 151.28L510.5 151.28L510.5 151.29L510.5 151.29L510.51 151.29L510.51 151.3L510.51 151.3L510.51 151.31L510.52 151.31L510.52 151.31L510.52 151.32L510.53 151.32L510.53 151.33L510.53 151.33L510.53 151.33L510.53 151.34L510.53 151.34L510.53 151.35L515.25 172.71L515.26 172.72L515.26 172.72L515.26 172.72L515.26 172.73L515.26 172.73L515.26 172.74L515.26 172.74L515.26 172.74L515.25 172.75L515.25 172.75L515.25 172.76L515.25 172.76L515.25 172.76L515.25 172.77L515.24 172.77L515.24 172.77L515.24 172.78L515.24 172.78L515.24 172.78L515.23 172.79L515.23 172.79L515.22 172.79L515.22 172.79L515.22 172.8L515.21 172.8L515.21 172.8L515.21 172.8L515.2 172.8L515.2 172.81L515.19 172.81L515.19 172.81L515.19 172.81L515.18 172.81L515.18 172.81L515.17 172.81L515.17 172.81L515.16 172.82L515.15 172.81L515.15 172.82L515.15 172.82L502.77 172.51L502.75 172.51L502.74 172.51L502.73 172.51L502.71 172.51L502.7 172.5L502.68 172.5L502.67 172.5L502.66 172.49L502.64 172.48L502.63 172.48L502.62 172.47L502.6 172.47L502.59 172.46L502.58 172.46L502.57 172.45L502.56 172.44L502.55 172.43L502.54 172.42L502.53 172.42L502.52 172.41L502.52 172.41L502.51 172.4L502.5 172.39Z" id="a2XQKmYruD"></path><path d="M490.21 182.81C490.45 182.62 491.05 182.13 492.01 181.35C495.16 180.76 497.13 180.38 497.91 180.23C499.11 180.01 499.68 178.99 499.16 178.03C498.95 177.66 498.42 176.71 497.58 175.19C497.6 174.93 497.74 173.6 497.99 171.21C494.67 168.72 492.82 167.33 492.45 167.05C490.81 166.78 489.79 166.61 489.37 166.54C488.68 166.43 488.14 165.94 488.09 165.38C487.96 163.9 487.75 161.51 487.64 160.3C487.55 159.22 488.89 158.54 490.15 159.04C490.81 159.3 490.55 159.19 491.33 159.5C492.52 159.98 493.87 159.65 494.41 158.77C494.62 158.42 495.16 157.53 496.02 156.11C495.73 155.44 493.43 150.07 493.15 149.4C490.51 148.75 488.86 148.34 488.2 148.18C487.14 147.92 486.35 147.14 486.28 146.27C485.51 137.59 483.46 114.39 482.72 106.06C482.62 104.97 484.27 104.51 485.23 105.36C498.13 116.8 534.2 148.78 547.14 160.26C548.57 161.53 548.56 163.39 547.1 164.41C535.83 172.36 504.84 194.22 493.61 202.13C492.49 202.92 490.59 202.2 490.49 200.94C490.2 197.5 489.5 188.91 489.19 185.1C489.11 184.23 489.48 183.4 490.21 182.81Z" id="a2RsDGhnPE"></path><path d="M490.21 182.81C490.45 182.62 491.05 182.13 492.01 181.35C495.16 180.76 497.13 180.38 497.91 180.23C499.11 180.01 499.68 178.99 499.16 178.03C498.95 177.66 498.42 176.71 497.58 175.19C497.6 174.93 497.74 173.6 497.99 171.21C494.67 168.72 492.82 167.33 492.45 167.05C490.81 166.78 489.79 166.61 489.37 166.54C488.68 166.43 488.14 165.94 488.09 165.38C487.96 163.9 487.75 161.51 487.64 160.3C487.55 159.22 488.89 158.54 490.15 159.04C490.81 159.3 490.55 159.19 491.33 159.5C492.52 159.98 493.87 159.65 494.41 158.77C494.62 158.42 495.16 157.53 496.02 156.11C495.73 155.44 493.43 150.07 493.15 149.4C490.51 148.75 488.86 148.34 488.2 148.18C487.14 147.92 486.35 147.14 486.28 146.27C485.51 137.59 483.46 114.39 482.72 106.06C482.62 104.97 484.27 104.51 485.23 105.36C498.13 116.8 534.2 148.78 547.14 160.26C548.57 161.53 548.56 163.39 547.1 164.41C535.83 172.36 504.84 194.22 493.61 202.13C492.49 202.92 490.59 202.2 490.49 200.94C490.2 197.5 489.5 188.91 489.19 185.1C489.11 184.23 489.48 183.4 490.21 182.81Z" id="az1JzBP7o"></path><path d="M165.76 282.68C166.61 284.25 168.76 288.24 169.61 289.82C169.83 290.22 169.73 290.72 169.38 290.91C169.06 291.09 168.72 291.29 168.4 291.47C168.05 291.67 167.6 291.5 167.37 291.09C166.52 289.51 164.37 285.52 163.52 283.94C163.3 283.54 163.41 283.04 163.75 282.85C164.07 282.67 164.41 282.48 164.74 282.29C165.09 282.09 165.54 282.26 165.76 282.68Z" id="c1RaLC6nV4"></path><path d="M165.76 282.68C166.61 284.25 168.76 288.24 169.61 289.82C169.83 290.22 169.73 290.72 169.38 290.91C169.06 291.09 168.72 291.29 168.4 291.47C168.05 291.67 167.6 291.5 167.37 291.09C166.52 289.51 164.37 285.52 163.52 283.94C163.3 283.54 163.41 283.04 163.75 282.85C164.07 282.67 164.41 282.48 164.74 282.29C165.09 282.09 165.54 282.26 165.76 282.68Z" id="c11mxjA4xa"></path><path d="M156.61 288.72C157.62 289.57 157.8 289.72 158.59 290.39C160.54 292.04 162.94 292.72 165.18 292.25C165.73 292.14 167.1 291.85 169.3 291.39C168.52 290.16 168.04 289.39 167.84 289.08C165.92 286.03 162.59 284.57 159.65 285.49C158.65 285.81 158.39 285.89 156.83 286.38C155.93 286.66 155.8 288.03 156.61 288.72Z" id="a1UiqV39bh"></path><path d="M156.61 288.72C157.62 289.57 157.8 289.72 158.59 290.39C160.54 292.04 162.94 292.72 165.18 292.25C165.73 292.14 167.1 291.85 169.3 291.39C168.52 290.16 168.04 289.39 167.84 289.08C165.92 286.03 162.59 284.57 159.65 285.49C158.65 285.81 158.39 285.89 156.83 286.38C155.93 286.66 155.8 288.03 156.61 288.72Z" id="hqZiYged"></path><path d="M176.52 282.96C178 282.43 177.8 282.5 178.85 282.12C182.14 280.93 185.79 281.03 189.26 282.4C190.11 282.73 188.52 282.1 189.66 282.56C192.15 283.54 194.34 285.47 195.83 288.01C197.26 290.43 197.19 290.32 198.11 291.88C201.25 297.22 202.73 303.46 202.28 309.5C202.16 310.99 202.2 310.5 202.01 313.09C201.81 315.66 201.19 318.12 200.16 320.33C199.83 321.04 200.39 319.84 200.06 320.55C199.06 322.7 197.39 324.31 195.35 325.11C194.98 325.25 194.07 325.6 192.61 326.16C191.91 327.21 191.48 327.87 191.31 328.13C189.6 330.71 186.91 332.21 183.94 332.26C183.01 332.27 184.28 332.25 183.2 332.27C180.62 332.3 178.01 331.72 175.53 330.56C172.99 329.37 170.78 328.33 168.65 327.33C164.88 325.57 161.57 322.53 159.2 318.67C157.91 316.57 158.16 316.97 156.98 315.06C154.4 310.84 153.94 305.56 155.8 301.36C156.36 300.11 155.64 301.72 156.36 300.1C157.78 296.89 160.23 294.49 163.25 293.33C164.35 292.91 165.87 292.33 167.7 291.63C168.38 291.37 168.97 290.89 169.4 290.25C170.24 289 171.17 287.62 171.78 286.72C172.98 284.95 174.62 283.65 176.52 282.96Z" id="a1cgM74pf"></path><path d="M176.52 282.96C178 282.43 177.8 282.5 178.85 282.12C182.14 280.93 185.79 281.03 189.26 282.4C190.11 282.73 188.52 282.1 189.66 282.56C192.15 283.54 194.34 285.47 195.83 288.01C197.26 290.43 197.19 290.32 198.11 291.88C201.25 297.22 202.73 303.46 202.28 309.5C202.16 310.99 202.2 310.5 202.01 313.09C201.81 315.66 201.19 318.12 200.16 320.33C199.83 321.04 200.39 319.84 200.06 320.55C199.06 322.7 197.39 324.31 195.35 325.11C194.98 325.25 194.07 325.6 192.61 326.16C191.91 327.21 191.48 327.87 191.31 328.13C189.6 330.71 186.91 332.21 183.94 332.26C183.01 332.27 184.28 332.25 183.2 332.27C180.62 332.3 178.01 331.72 175.53 330.56C172.99 329.37 170.78 328.33 168.65 327.33C164.88 325.57 161.57 322.53 159.2 318.67C157.91 316.57 158.16 316.97 156.98 315.06C154.4 310.84 153.94 305.56 155.8 301.36C156.36 300.11 155.64 301.72 156.36 300.1C157.78 296.89 160.23 294.49 163.25 293.33C164.35 292.91 165.87 292.33 167.7 291.63C168.38 291.37 168.97 290.89 169.4 290.25C170.24 289 171.17 287.62 171.78 286.72C172.98 284.95 174.62 283.65 176.52 282.96Z" id="aUWbHrFnL"></path><path d="M213.09 265.46L215.55 252.55L224.56 243.94L236.86 244.8L247.52 237.06L255.72 226.73L268.02 226.73" id="f51tBIojqQ"></path><path d="M204.07 378.2L208.99 366.15L221.28 364.43L227.84 352.38" id="d106y6oLWl"></path><path d="M249.16 391.11L250.8 378.2L257.36 365.29L268.02 358.4L280.32 355.82L290.98 347.22L296.72 330.86L303.28 318.82L313.12 309.35L323.78 299.02L333.62 291.28" id="afXG1rJW4"></path><path d="M282.78 130.35L290.98 120.02L300.82 110.55L313.12 105.39L325.42 104.53L337.71 104.53L351.65 98.5L363.13 92.48L375.43 89.04L388.55 85.6L403.31 82.15L413.15 73.55" id="i2Ixva3v9d"></path><path d="M368.05 203.5L379.53 196.61L390.19 188.87L401.67 181.98L413.97 181.12L427.91 175.1L438.57 164.77" id="g3HbCVrqfn"></path><path d="M401.67 239.64L411.51 228.45L423.81 226.73L436.93 222.43" id="c58StiFGFm"></path><path d="M330.34 165.63L336.89 152.72L348.37 146.7L361.49 146.7L373.79 143.25L381.17 132.93L387.73 121.74L399.21 116.58L413.97 116.58L426.27 113.99L436.93 107.11L448.41 97.64" id="aMdtN7sU7"></path></defs><g><g><use xlink:href="#h6E0zRSUwl" opacity="1" fill="#ceb4a6" fill-opacity="1"></use><g><use xlink:href="#h6E0zRSUwl" opacity="1" fill-opacity="0" stroke="#000000" stroke-width="1" stroke-opacity="1"></use></g></g><g><use xlink:href="#a28ORhePfN" opacity="1" fill="#305cb1" fill-opacity="0"></use><g><use xlink:href="#a28ORhePfN" opacity="1" fill-opacity="0" stroke="#34a716" stroke-width="2" stroke-opacity="1"></use></g></g><g><use xlink:href="#i1FHKauG8z" opacity="1" fill="#d5d0c6" fill-opacity="1"></use><g><use xlink:href="#i1FHKauG8z" opacity="1" fill-opacity="0" stroke="#000000" stroke-width="1" stroke-opacity="1"></use></g></g><g><use xlink:href="#bBC5Jz0A" opacity="1" fill="#fffdf9" fill-opacity="1"></use><g><use xlink:href="#bBC5Jz0A" opacity="1" fill-opacity="0" stroke="#1a120b" stroke-width="1" stroke-opacity="1"></use></g></g><g><use xlink:href="#ekMPTzyUv" opacity="1" fill="#fffdf9" fill-opacity="1"></use><g><use xlink:href="#ekMPTzyUv" opacity="1" fill-opacity="0" stroke="#000000" stroke-width="1" stroke-opacity="1"></use></g></g><g><use xlink:href="#a3flKZgYI" opacity="1" fill="#fffdf9" fill-opacity="1"></use><g><use xlink:href="#a3flKZgYI" opacity="1" fill-opacity="0" stroke="#4d3b2a" stroke-width="1" stroke-opacity="1"></use></g></g><g><use xlink:href="#f2a2pjqD2X" opacity="1" fill="#fffdf9" fill-opacity="1"></use><g><use xlink:href="#f2a2pjqD2X" opacity="1" fill-opacity="0" stroke="#000000" stroke-width="1" stroke-opacity="1"></use></g></g><g><use xlink:href="#f1GkOa5xJH" opacity="1" fill="#fffdf9" fill-opacity="1"></use><g><use xlink:href="#f1GkOa5xJH" opacity="1" fill-opacity="0" stroke="#000000" stroke-width="1" stroke-opacity="1"></use></g></g><g><use xlink:href="#e2dvrrRtwk" opacity="1" fill="#ceb4a6" fill-opacity="1"></use><g><use xlink:href="#e2dvrrRtwk" opacity="1" fill-opacity="0" stroke="#000000" stroke-width="1" stroke-opacity="1"></use></g></g><g><g><use xlink:href="#a19OVtK8MJ" opacity="1" fill-opacity="0" stroke="#000000" stroke-width="1" stroke-opacity="1"></use></g></g><g><use xlink:href="#a4ov5fUoyn" opacity="1" fill="#b09076" fill-opacity="1"></use><g><use xlink:href="#a4ov5fUoyn" opacity="1" fill-opacity="0" stroke="#000000" stroke-width="1" stroke-opacity="0"></use></g></g><g><use xlink:href="#eQkzUvdkL" opacity="1" fill="#000000" fill-opacity="0"></use><g><use xlink:href="#eQkzUvdkL" opacity="1" fill-opacity="0" stroke="#906949" stroke-width="2" stroke-opacity="1"></use></g></g><g><use xlink:href="#a2FOWXCppg" opacity="1" fill="#a5d45f" fill-opacity="1"></use><g><use xlink:href="#a2FOWXCppg" opacity="1" fill-opacity="0" stroke="#000000" stroke-width="2" stroke-opacity="0"></use></g></g><g><use xlink:href="#a1viJxOmi" opacity="1" fill="#000000" fill-opacity="0"></use><g><use xlink:href="#a1viJxOmi" opacity="1" fill-opacity="0" stroke="#76a234" stroke-width="2" stroke-opacity="1"></use></g></g><g><use xlink:href="#aY6bXwPm2" opacity="1" fill="#7ac85c" fill-opacity="1"></use><g><use xlink:href="#aY6bXwPm2" opacity="1" fill-opacity="0" stroke="#000000" stroke-width="1" stroke-opacity="0"></use></g></g><g><use xlink:href="#b6C3b9O1H" opacity="1" fill="#7ac85c" fill-opacity="1"></use><g><use xlink:href="#b6C3b9O1H" opacity="1" fill-opacity="0" stroke="#000000" stroke-width="1" stroke-opacity="0"></use></g></g><g><use xlink:href="#a9IW1dEr1" opacity="1" fill="#000000" fill-opacity="0"></use><g><use xlink:href="#a9IW1dEr1" opacity="1" fill-opacity="0" stroke="#759b3c" stroke-width="2" stroke-opacity="1"></use></g></g><g><use xlink:href="#a5ZFNzehFC" opacity="1" fill="#7ac85c" fill-opacity="1"></use><g><use xlink:href="#a5ZFNzehFC" opacity="1" fill-opacity="0" stroke="#000000" stroke-width="1" stroke-opacity="0"></use></g></g><g><use xlink:href="#a1UxKDRlvw" opacity="1" fill="#000000" fill-opacity="0"></use><g><use xlink:href="#a1UxKDRlvw" opacity="1" fill-opacity="0" stroke="#759b3c" stroke-width="2" stroke-opacity="1"></use></g></g><g><use xlink:href="#aoGuZhnN" opacity="1" fill="#a2d752" fill-opacity="1"></use><g><use xlink:href="#aoGuZhnN" opacity="1" fill-opacity="0" stroke="#000000" stroke-width="1" stroke-opacity="0"></use></g></g><g><use xlink:href="#c3oFFiRJLz" opacity="1" fill="#000000" fill-opacity="0"></use><g><use xlink:href="#c3oFFiRJLz" opacity="1" fill-opacity="0" stroke="#76a234" stroke-width="2" stroke-opacity="1"></use></g></g><g><use xlink:href="#j33iWiVub" opacity="1" fill="#a2d752" fill-opacity="1"></use><g><use xlink:href="#j33iWiVub" opacity="1" fill-opacity="0" stroke="#000000" stroke-width="1" stroke-opacity="0"></use></g></g><g><use xlink:href="#a31uZsU9Ve" opacity="1" fill="#000000" fill-opacity="0"></use><g><use xlink:href="#a31uZsU9Ve" opacity="1" fill-opacity="0" stroke="#76a234" stroke-width="2" stroke-opacity="1"></use></g></g><g><use xlink:href="#f1tP18SIbV" opacity="1" fill="#ec6745" fill-opacity="1"></use><g><use xlink:href="#f1tP18SIbV" opacity="1" fill-opacity="0" stroke="#000000" stroke-width="1" stroke-opacity="0"></use></g></g><g><use xlink:href="#c1wieF6tG" opacity="1" fill="#000000" fill-opacity="0"></use><g><use xlink:href="#c1wieF6tG" opacity="1" fill-opacity="0" stroke="#8d4a31" stroke-width="2" stroke-opacity="1"></use></g></g><g><use xlink:href="#i20J7U9zIK" opacity="1" fill="#ec6745" fill-opacity="1"></use><g><use xlink:href="#i20J7U9zIK" opacity="1" fill-opacity="0" stroke="#000000" stroke-width="1" stroke-opacity="0"></use></g></g><g><use xlink:href="#d3cuMTftD" opacity="1" fill="#000000" fill-opacity="0"></use><g><use xlink:href="#d3cuMTftD" opacity="1" fill-opacity="0" stroke="#8d4a31" stroke-width="2" stroke-opacity="1"></use></g></g><g><use xlink:href="#e2pRQ0yT4a" opacity="1" fill="#ffe399" fill-opacity="1"></use><g><use xlink:href="#e2pRQ0yT4a" opacity="1" fill-opacity="0" stroke="#000000" stroke-width="1" stroke-opacity="0"></use></g></g><g><use xlink:href="#gw9DZihR" opacity="1" fill="#000000" fill-opacity="0"></use><g><use xlink:href="#gw9DZihR" opacity="1" fill-opacity="0" stroke="#dbbb36" stroke-width="2" stroke-opacity="1"></use></g></g><g><use xlink:href="#ayvXn31t3" opacity="1" fill="#ffe399" fill-opacity="1"></use><g><use xlink:href="#ayvXn31t3" opacity="1" fill-opacity="0" stroke="#000000" stroke-width="1" stroke-opacity="0"></use></g></g><g><use xlink:href="#a2XQKmYruD" opacity="1" fill="#000000" fill-opacity="0"></use><g><use xlink:href="#a2XQKmYruD" opacity="1" fill-opacity="0" stroke="#dbbb36" stroke-width="2" stroke-opacity="1"></use></g></g><g><use xlink:href="#a2RsDGhnPE" opacity="1" fill="#dba477" fill-opacity="1"></use><g><use xlink:href="#a2RsDGhnPE" opacity="1" fill-opacity="0" stroke="#000000" stroke-width="1" stroke-opacity="0"></use></g></g><g><use xlink:href="#az1JzBP7o" opacity="1" fill="#000000" fill-opacity="0"></use><g><use xlink:href="#az1JzBP7o" opacity="1" fill-opacity="0" stroke="#6b4321" stroke-width="1" stroke-opacity="1"></use></g></g><g><use xlink:href="#c1RaLC6nV4" opacity="1" fill="#d4b496" fill-opacity="1"></use><g><use xlink:href="#c1RaLC6nV4" opacity="1" fill-opacity="0" stroke="#000000" stroke-width="1" stroke-opacity="0"></use></g></g><g><use xlink:href="#c11mxjA4xa" opacity="1" fill="#000000" fill-opacity="0"></use><g><use xlink:href="#c11mxjA4xa" opacity="1" fill-opacity="0" stroke="#000000" stroke-width="1" stroke-opacity="1"></use></g></g><g><use xlink:href="#a1UiqV39bh" opacity="1" fill="#6ec982" fill-opacity="1"></use><g><use xlink:href="#a1UiqV39bh" opacity="1" fill-opacity="0" stroke="#000000" stroke-width="1" stroke-opacity="0"></use></g></g><g><use xlink:href="#hqZiYged" opacity="1" fill="#000000" fill-opacity="0"></use><g><use xlink:href="#hqZiYged" opacity="1" fill-opacity="0" stroke="#000000" stroke-width="1" stroke-opacity="1"></use></g></g><g><use xlink:href="#a1cgM74pf" opacity="1" fill="#f34a4a" fill-opacity="1"></use><g><use xlink:href="#a1cgM74pf" opacity="1" fill-opacity="0" stroke="#000000" stroke-width="1" stroke-opacity="0"></use></g></g><g><use xlink:href="#aUWbHrFnL" opacity="1" fill="#000000" fill-opacity="0"></use><g><use xlink:href="#aUWbHrFnL" opacity="1" fill-opacity="0" stroke="#831919" stroke-width="1" stroke-opacity="1"></use></g></g><g><g><use xlink:href="#f51tBIojqQ" opacity="1" fill-opacity="0" stroke="#6b4321" stroke-width="1" stroke-opacity="1"></use></g></g><g><g><use xlink:href="#d106y6oLWl" opacity="1" fill-opacity="0" stroke="#6b4321" stroke-width="1" stroke-opacity="1"></use></g></g><g><g><use xlink:href="#afXG1rJW4" opacity="1" fill-opacity="0" stroke="#6b4321" stroke-width="1" stroke-opacity="1"></use></g></g><g><g><use xlink:href="#i2Ixva3v9d" opacity="1" fill-opacity="0" stroke="#6b4321" stroke-width="1" stroke-opacity="1"></use></g></g><g><g><use xlink:href="#g3HbCVrqfn" opacity="1" fill-opacity="0" stroke="#6b4321" stroke-width="1" stroke-opacity="1"></use></g></g><g><g><use xlink:href="#c58StiFGFm" opacity="1" fill-opacity="0" stroke="#6b4321" stroke-width="1" stroke-opacity="1"></use></g></g><g><g><use xlink:href="#aMdtN7sU7" opacity="1" fill-opacity="0" stroke="#6b4321" stroke-width="1" stroke-opacity="1"></use></g></g></g></svg>