<?xml version="1.0" encoding="UTF-8" standalone="no"?>
<!DOCTYPE svg PUBLIC "-//W3C//DTD SVG 1.1//EN" "http://www.w3.org/Graphics/SVG/1.1/DTD/svg11.dtd">
<svg version="1.1" xmlns="http://www.w3.org/2000/svg" xmlns:xlink="http://www.w3.org/1999/xlink" preserveAspectRatio="xMidYMid meet" viewBox="-0.28007156137087463 0.7060020345876978 355.0399901778512 640.9104781281792" width="350.04" height="635.91"><defs><path d="M308.88 2.71C332.56 2.71 351.76 21.91 351.76 45.59C351.76 65.64 351.76 115.75 351.76 195.93L1.72 195.93C1.72 115.75 1.72 65.64 1.72 45.59C1.72 21.91 20.92 2.71 44.6 2.71C106.04 2.71 247.44 2.71 308.88 2.71Z" id="f1sWOI8mEq"></path><path d="M308.88 638.62C332.56 638.62 351.76 619.42 351.76 595.73C351.76 544.54 351.76 416.56 351.76 211.79L1.72 211.79C1.72 416.56 1.72 544.54 1.72 595.73C1.72 619.42 20.92 638.62 44.6 638.62C106.04 638.62 247.44 638.62 308.88 638.62Z" id="b3VOKl2hy4"></path><path d="M314.85 52.69C319.21 52.69 322.75 56.23 322.75 60.59C322.75 79.68 322.75 129.05 322.75 148.14C322.75 152.5 319.21 156.04 314.85 156.04C313.2 156.04 316.13 156.04 314.47 156.04C310.11 156.04 306.58 152.5 306.58 148.14C306.58 129.05 306.58 79.68 306.58 60.59C306.58 56.23 310.11 52.69 314.47 52.69C316.13 52.69 313.2 52.69 314.85 52.69Z" id="agYp4vEPe"></path><path d="M314.66 265.15C319.13 265.15 322.75 268.77 322.75 273.23C322.75 297.18 322.75 360.96 322.75 384.92C322.75 389.38 319.13 393 314.66 393C313.05 393 316.28 393 314.66 393C310.2 393 306.58 389.38 306.58 384.92C306.58 360.96 306.58 297.18 306.58 273.23C306.58 268.77 310.2 265.15 314.66 265.15C316.28 265.15 313.05 265.15 314.66 265.15Z" id="b1VjJ1c5fR"></path><path d="M47.24 296.98L143.62 262.44C160.04 309.25 170.3 338.5 174.41 350.2C182.17 372.33 170.62 396.58 148.55 404.49C148.55 404.49 148.55 404.49 148.55 404.49C125.36 412.8 110.86 418 105.07 420.07C97.9 422.64 90.02 418.88 87.5 411.7C82.13 396.41 68.71 358.17 47.24 296.98Z" id="b9mOi8UZn8"></path><path d="M140.13 285.27L227.65 305.99C218.86 343.91 213.37 367.61 211.17 377.09C206.98 395.17 188.88 406.4 170.82 402.13C170.36 402.02 169.2 401.74 167.34 401.3C145.68 396.17 132.14 392.97 126.73 391.69C120.82 390.29 117.16 384.39 118.53 378.48C121.41 366.05 128.61 334.98 140.13 285.27Z" id="abOshRgv"></path><path d="M84 270.91L103.97 270.91L103.97 292.06L84 292.06L84 270.91Z" id="jrP4ryy4X"></path><path d="M172.46 288.22L192.43 288.22L192.43 309.37L172.46 309.37L172.46 288.22Z" id="a5f8yrmXZL"></path><path d="M76.39 329.27L82.1 322.54L90.66 318.69L97.32 316.77L104.92 316.77L112.53 316.77L120.14 316.77L127.75 315.81L133.46 308.12" id="csiCgGUo"></path><path d="M90.66 350.41L95.41 343.68L103.02 343.68L110.63 343.68L118.24 341.76" id="cCSdSUzW"></path><path d="M143.92 323.5L151.53 323.5L159.14 323.5L163.9 329.27L170.56 332.15L178.17 332.15L186.73 332.15L194.34 332.15L201.95 334.07" id="b11Jwx1VAY"></path><path d="M141.07 348.49L148.68 351.38L155.34 353.3L162 355.22L168.65 353.3L176.26 355.22L179.12 361.95L189.58 366.76" id="bDl6dilnS"></path><path d="M136.31 374.45L144.87 374.45L151.53 377.33L158.19 379.25" id="bVC3bTifh"></path></defs><g><g><use xlink:href="#f1sWOI8mEq" opacity="1" fill="#efefef" fill-opacity="1"></use><g><use xlink:href="#f1sWOI8mEq" opacity="1" fill-opacity="0" stroke="#bfbfbf" stroke-width="4" stroke-opacity="1"></use></g></g><g><use xlink:href="#b3VOKl2hy4" opacity="1" fill="#efefef" fill-opacity="1"></use><g><use xlink:href="#b3VOKl2hy4" opacity="1" fill-opacity="0" stroke="#bfbfbf" stroke-width="4" stroke-opacity="1"></use></g></g><g><use xlink:href="#agYp4vEPe" opacity="1" fill="#696969" fill-opacity="1"></use><g><use xlink:href="#agYp4vEPe" opacity="1" fill-opacity="0" stroke="#bfbfbf" stroke-width="0" stroke-opacity="1"></use></g></g><g><use xlink:href="#b1VjJ1c5fR" opacity="1" fill="#696969" fill-opacity="1"></use><g><use xlink:href="#b1VjJ1c5fR" opacity="1" fill-opacity="0" stroke="#bfbfbf" stroke-width="0" stroke-opacity="1"></use></g></g><g><use xlink:href="#b9mOi8UZn8" opacity="1" fill="#ffffff" fill-opacity="1"></use><g><use xlink:href="#b9mOi8UZn8" opacity="1" fill-opacity="0" stroke="#bfbfbf" stroke-width="3" stroke-opacity="1"></use></g></g><g><use xlink:href="#abOshRgv" opacity="1" fill="#ffffff" fill-opacity="1"></use><g><use xlink:href="#abOshRgv" opacity="1" fill-opacity="0" stroke="#bfbfbf" stroke-width="3" stroke-opacity="1"></use></g></g><g><use xlink:href="#jrP4ryy4X" opacity="1" fill="#696969" fill-opacity="1"></use></g><g><use xlink:href="#a5f8yrmXZL" opacity="1" fill="#696969" fill-opacity="1"></use></g><g><g><use xlink:href="#csiCgGUo" opacity="1" fill-opacity="0" stroke="#bfbfbf" stroke-width="3" stroke-opacity="1"></use></g></g><g><g><use xlink:href="#cCSdSUzW" opacity="1" fill-opacity="0" stroke="#bfbfbf" stroke-width="3" stroke-opacity="1"></use></g></g><g><g><use xlink:href="#b11Jwx1VAY" opacity="1" fill-opacity="0" stroke="#bfbfbf" stroke-width="3" stroke-opacity="1"></use></g></g><g><g><use xlink:href="#bDl6dilnS" opacity="1" fill-opacity="0" stroke="#bfbfbf" stroke-width="3" stroke-opacity="1"></use></g></g><g><g><use xlink:href="#bVC3bTifh" opacity="1" fill-opacity="0" stroke="#bfbfbf" stroke-width="3" stroke-opacity="1"></use></g></g></g></svg>